<?xml version="1.0" encoding="UTF-8" standalone="no"?>
<svg xmlns:dc="http://purl.org/dc/elements/1.1/" xmlns:cc="http://creativecommons.org/ns#" xmlns:rdf="http://www.w3.org/1999/02/22-rdf-syntax-ns#" xmlns:svg="http://www.w3.org/2000/svg" xmlns="http://www.w3.org/2000/svg" version="1.0" width="174" height="50" id="svg1988">
<metadata id="metadata46">
<rdf:RDF>
<cc:Work rdf:about="">
<dc:format>image/svg+xml</dc:format>
<dc:type rdf:resource="http://purl.org/dc/dcmitype/StillImage" />
<dc:title></dc:title>
</cc:Work>
</rdf:RDF>
</metadata>
<defs id="defs1" />
<g id="word" fill="black">
<path d="m 41.845022,12.27923 c -3.9e-5,0.14023 -0.04481,0.26898 -0.134313,0.38628 -0.08958,0.11733 -0.187862,0.176 -0.294837,0.17597 -0.88309,0.0823 -1.60489,0.36072 -2.1654,0.83532 -0.56059,0.47466 -1.13898,1.38007 -1.73517,2.7163 l -9.12463,20.19911 c -0.05972,0.18742 -0.22679,0.28113 -0.50122,0.28114 -0.21478,-1e-5 -0.38149,-0.0937 -0.50013,-0.28114 l -5.11704,-10.51319 -5.88689,10.51319 c -0.11868,0.18742 -0.28539,0.28113 -0.50013,0.28114 -0.26282,-1e-5 -0.43571,-0.0937 -0.51869,-0.28114 L 6.402462,16.3931 c -0.56055,-1.25468 -1.15095,-2.13095 -1.7712,-2.62883 -0.62025,-0.49785 -1.4851,-0.80545 -2.59455,-0.92279 -0.09537,3e-5 -0.18473,-0.0499 -0.26808,-0.14968 -0.08336,-0.0998 -0.12504,-0.21404 -0.12504,-0.34283 0,-0.3283 0.09537,-0.49247 0.2861,-0.4925 0.79933,3e-5 1.63434,0.0354 2.50502,0.10622 0.81097,0.0701 1.57427,0.1052 2.28989,0.10517 0.72725,3e-5 1.58592,-0.035 2.57599,-0.10517 1.03811,-0.0708 1.95646,-0.10619 2.75508,-0.10622 0.19145,3e-5 0.28718,0.1642 0.28719,0.4925 -10e-6,0.32836 -0.0597,0.49254 -0.17908,0.49251 -0.79935,0.0587 -1.42869,0.2579 -1.88805,0.59765 -0.45937,0.33982 -0.68905,0.78512 -0.68904,1.33589 -10e-6,0.28114 0.09572,0.63272 0.28719,1.05475 l 7.40694,16.4372 4.20414,-7.80496 -3.91804,-8.06891 c -0.70398,-1.4421 -1.28255,-2.37112 -1.73571,-2.78711 -0.45319,-0.41593 -1.13914,-0.67079 -2.05785,-0.76451 -0.083,3e-5 -0.16326,-0.0499 -0.24078,-0.14968 -0.07754,-0.0998 -0.11631,-0.21404 -0.1163,-0.34283 -1e-5,-0.3283 0.08335,-0.49247 0.25007,-0.4925 0.79932,3e-5 1.53277,0.0354 2.20035,0.10622 0.64425,0.0701 1.33002,0.1052 2.0573,0.10517 0.71559,3e-5 1.47307,-0.035 2.27242,-0.10517 0.82334,-0.0708 1.63432,-0.10619 2.43294,-0.10622 0.19144,3e-5 0.28717,0.1642 0.28719,0.4925 -2e-5,0.32836 -0.05971,0.49254 -0.17908,0.49251 -1.59869,0.10518 -2.39802,0.55048 -2.398,1.33588 -2e-5,0.35196 0.18489,0.89705 0.55473,1.63523 l 2.59455,5.16862 2.576,-4.72975 c 0.35814,-0.66738 0.53723,-1.22963 0.53725,-1.68675 -2e-5,-1.07869 -0.79935,-1.6531 -2.398,-1.72323 -0.14271,3e-5 -0.21405,-0.16415 -0.21403,-0.49251 -2e-5,-0.11727 0.03565,-0.2287 0.10702,-0.33423 0.07132,-0.1055 0.14303,-0.15824 0.21512,-0.15827 0.57218,3e-5 1.27578,0.0354 2.11081,0.10622 0.7993,0.0701 1.45522,0.1052 1.96775,0.10517 0.3698,3e-5 0.91251,-0.0293 1.62815,-0.088 0.90632,-0.0822 1.66379,-0.12336 2.27242,-0.12339 0.14266,3e-5 0.214,0.14094 0.21403,0.42276 -3e-5,0.37484 -0.13107,0.56228 -0.39311,0.56225 -0.9304,0.0937 -1.67877,0.34571 -2.24512,0.75592 -0.56641,0.41026 -1.27328,1.34215 -2.12064,2.7957 l -3.43429,6.24053 4.65076,9.31682 6.87077,-15.69899 c 0.23875,-0.57368 0.35814,-1.10086 0.35818,-1.58159 -4e-5,-1.14881 -0.79937,-1.75826 -2.398,-1.82839 -0.14345,3e-5 -0.21516,-0.16415 -0.21513,-0.49251 -3e-5,-0.3283 0.10735,-0.49247 0.32214,-0.4925 0.58454,3e-5 1.2765,0.0354 2.07586,0.10622 0.73961,0.0701 1.35985,0.1052 1.86075,0.10517 0.52484,3e-5 1.13308,-0.035 1.8247,-0.10517 0.71558,-0.0708 1.35948,-0.10619 1.931725,-0.10622 0.167398,3e-5 0.251116,0.14094 0.251155,0.42276 l 0,0 z" id="l_W" />
<path d="m 49.18852,35.90431 c -9e-6,0.22822 -0.0663,0.34232 -0.198858,0.34232 -0.555592,0 -1.21465,-0.0246 -1.97718,-0.0738 -0.729655,-0.0487 -1.347224,-0.0731 -1.852708,-0.0731 -0.506002,0 -1.123571,0.0244 -1.852707,0.0731 -0.771142,0.0492 -1.438552,0.0738 -2.00223,0.0738 -0.132573,0 -0.198858,-0.1141 -0.198857,-0.34232 -1e-6,-0.20385 0.06628,-0.31398 0.198857,-0.33039 1.002883,-0.11386 1.684713,-0.29707 2.045492,-0.54965 0.360772,-0.25258 0.54116,-0.75747 0.541165,-1.5147 l 0,-11.49868 c -5e-6,-0.57028 -0.07262,-0.97151 -0.217833,-1.20371 -0.145225,-0.23218 -0.400247,-0.4154 -0.765066,-0.54966 -0.364827,-0.13423 -0.899413,-0.24212 -1.603758,-0.32368 -0.132573,10e-6 -0.198858,-0.11409 -0.198857,-0.34231 -1e-6,-0.22819 0.06628,-0.34231 0.198857,-0.34234 0.563678,3e-5 1.231088,0.0246 2.00223,0.0738 0.729136,0.0487 1.346705,0.0731 1.852707,0.0731 0.505484,2e-5 1.123053,-0.0243 1.852708,-0.0731 0.76253,-0.0492 1.421588,-0.0738 1.97718,-0.0738 0.132562,3e-5 0.198849,0.11415 0.198858,0.34234 -9e-6,0.22822 -0.0663,0.34232 -0.198858,0.34231 -0.696258,0.0816 -1.226796,0.18945 -1.591611,0.32368 -0.364832,0.13426 -0.617704,0.31548 -0.758617,0.54368 -0.140927,0.22823 -0.211387,0.63145 -0.211379,1.20969 l 0,11.49868 c -8e-6,0.56182 0.07045,0.95884 0.211379,1.19102 0.140913,0.23221 0.391636,0.41555 0.752164,0.55003 0.360517,0.1345 0.889157,0.24225 1.585921,0.3233 0.140658,0.0164 0.210992,0.12654 0.211001,0.33039 l 0,0 z" id="l_i" />
<path d="m 70.22711,35.90431 c -1.8e-5,0.22822 -0.0663,0.34232 -0.198856,0.34232 -0.555604,0 -1.218965,-0.0246 -1.990086,-0.0738 -0.73776,-0.0487 -1.359376,-0.0731 -1.864851,-0.0731 -0.489314,0 -1.165072,0.0244 -2.027276,0.0731 -0.903722,0.0492 -1.63337,0.0738 -2.188942,0.0738 -0.132582,0 -0.198868,-0.1141 -0.198857,-0.34232 -1.1e-5,-0.20385 0.05818,-0.31398 0.17457,-0.33039 1.119252,-0.13026 1.678883,-0.39477 1.678896,-0.79352 -1.3e-5,-0.22821 -0.182425,-0.52155 -0.547236,-0.88004 l -4.937264,-4.93642 c -0.265148,-0.26103 -0.495125,-0.4322 -0.689925,-0.51348 -0.194817,-0.0813 -0.462235,-0.12193 -0.802258,-0.12195 l 0,5.18106 c -8e-6,0.56182 0.0726,0.95884 0.217831,1.19102 0.145215,0.23221 0.40226,0.41555 0.771138,0.55003 0.368865,0.1345 0.897378,0.24225 1.585543,0.3233 0.140656,0.0164 0.210991,0.12654 0.210998,0.33039 -7e-6,0.22822 -0.06629,0.34232 -0.198854,0.34232 -0.555594,0 -1.218701,-0.0246 -1.98933,-0.0738 -0.738254,-0.0487 -1.360123,-0.0731 -1.865608,-0.0731 -0.4974,0 -1.110921,0.0244 -1.840562,0.0731 -0.771143,0.0492 -1.434251,0.0738 -1.989329,0.0738 -0.132571,0 -0.198857,-0.1141 -0.198857,-0.34232 0,-0.20385 0.06629,-0.31398 0.198857,-0.33039 1.002884,-0.11386 1.684714,-0.29707 2.045493,-0.54965 0.360772,-0.25258 0.54116,-0.75747 0.541163,-1.5147 l 0,-11.49868 c -3e-6,-0.57028 -0.07261,-0.97151 -0.21783,-1.20371 -0.145225,-0.23218 -0.400249,-0.4154 -0.765069,-0.54966 -0.364826,-0.13423 -0.89941,-0.24212 -1.603757,-0.32368 -0.132571,10e-6 -0.198857,-0.11409 -0.198857,-0.34231 0,-0.22819 0.06629,-0.34231 0.198857,-0.34234 0.555078,3e-5 1.218186,0.0246 1.989329,0.0738 0.729641,0.0487 1.343162,0.0731 1.840562,0.0731 0.505485,2e-5 1.127354,-0.0243 1.865608,-0.0731 0.770629,-0.0492 1.433736,-0.0738 1.98933,-0.0738 0.132561,3e-5 0.198847,0.11415 0.198854,0.34234 -7e-6,0.22822 -0.06629,0.34232 -0.198854,0.34231 -0.704863,0.0816 -1.239575,0.18945 -1.604137,0.32368 -0.364578,0.13426 -0.619473,0.31748 -0.764688,0.54966 -0.145227,0.2322 -0.217839,0.63343 -0.217831,1.20371 l 0,5.5353 c 0.323324,0 0.584418,-0.0406 0.783281,-0.12194 0.198851,-0.0813 0.435151,-0.25245 0.708902,-0.51348 l 5.459453,-5.29068 c 0.447287,-0.41565 0.670938,-0.71695 0.670952,-0.90391 -1.4e-5,-0.22023 -0.10564,-0.3853 -0.316881,-0.4952 -0.211266,-0.10987 -0.636176,-0.20558 -1.274732,-0.28714 -0.132583,10e-6 -0.198869,-0.11409 -0.198856,-0.34231 -1.3e-5,-0.22819 0.07462,-0.34231 0.223903,-0.34234 0.389604,3e-5 0.903698,0.0246 1.542277,0.0738 0.679541,0.0487 1.243221,0.0731 1.691043,0.0731 0.44779,2e-5 0.945185,-0.0285 1.492185,-0.0858 0.455885,-0.0408 0.845503,-0.0611 1.168852,-0.0612 0.115855,3e-5 0.173791,0.11415 0.17381,0.34234 -1.9e-5,0.22822 -0.0663,0.34232 -0.198858,0.34231 -0.795949,0.098 -1.421867,0.25683 -1.877753,0.47658 -0.455919,0.21976 -1.002901,0.62697 -1.640948,1.22159 l -5.670454,5.30337 7.050307,7.03806 c 0.489283,0.50517 0.972257,0.86972 1.448922,1.09372 0.476631,0.22399 1.187556,0.3929 2.132777,0.50676 0.14925,0.0164 0.223885,0.12654 0.223903,0.33039 l 0,0 z" id="l_k" />
<path d="m 79.791206,35.90431 c -9e-6,0.22822 -0.06629,0.34232 -0.198856,0.34232 -0.555593,0 -1.214653,-0.0246 -1.977182,-0.0738 -0.729654,-0.0487 -1.347223,-0.0731 -1.852707,-0.0731 -0.506002,0 -1.123571,0.0244 -1.852707,0.0731 -0.771142,0.0492 -1.438552,0.0738 -2.002231,0.0738 -0.132573,0 -0.198859,-0.1141 -0.198858,-0.34232 -10e-7,-0.20385 0.06629,-0.31398 0.198858,-0.33039 1.002883,-0.11386 1.684713,-0.29707 2.045493,-0.54965 0.360772,-0.25258 0.541159,-0.75747 0.541164,-1.5147 l 0,-11.49868 c -5e-6,-0.57028 -0.07262,-0.97151 -0.217833,-1.20371 -0.145225,-0.23218 -0.400247,-0.4154 -0.765066,-0.54966 -0.364828,-0.13423 -0.899412,-0.24212 -1.603758,-0.32368 -0.132573,10e-6 -0.198859,-0.11409 -0.198858,-0.34231 -10e-7,-0.22819 0.06629,-0.34231 0.198858,-0.34234 0.563679,3e-5 1.231089,0.0246 2.002231,0.0738 0.729136,0.0487 1.346705,0.0731 1.852707,0.0731 0.505484,2e-5 1.123053,-0.0243 1.852707,-0.0731 0.762529,-0.0492 1.421589,-0.0738 1.977182,-0.0738 0.132561,3e-5 0.198847,0.11415 0.198856,0.34234 -9e-6,0.22822 -0.06629,0.34232 -0.198856,0.34231 -0.69626,0.0816 -1.226797,0.18945 -1.591612,0.32368 -0.364833,0.13426 -0.617704,0.31548 -0.758617,0.54368 -0.140927,0.22823 -0.211387,0.63145 -0.21138,1.20969 l 0,11.49868 c -7e-6,0.56182 0.07045,0.95884 0.21138,1.19102 0.140913,0.23221 0.391635,0.41555 0.752165,0.55003 0.360513,0.1345 0.889153,0.24225 1.585919,0.3233 0.140659,0.0164 0.210992,0.12654 0.211001,0.33039 l 0,0 z" id="l_i_2" />
<path d="m 82.053235,19.2564 c -0.07457,0.0428 -0.124996,0.17041 -0.125,0.34155 0,0.22822 0.08618,0.34156 0.21875,0.34155 0.704348,0.0816 1.228922,0.17888 1.59375,0.3131 0.364821,0.13426 0.636023,0.30861 0.78125,0.54079 0.145216,0.2322 0.218749,0.65362 0.21875,1.2239 l 0,11.49896 c -3e-6,0.75723 -0.201729,1.25594 -0.5625,1.50852 -0.360779,0.25258 -1.028367,0.42694 -2.03125,0.5408 -0.132571,0.0164 -0.218746,0.13771 -0.21875,0.34155 0,0.22822 0.08618,0.34155 0.21875,0.34155 0.555079,0 1.19761,-0.0362 1.96875,-0.0854 0.737739,-0.0487 1.369002,-0.0569 1.875,-0.0569 0.505486,0 1.1141,0.008 1.84375,0.0569 0.762531,0.0492 1.444405,0.0854 2,0.0854 0.132561,0 0.187493,-0.11333 0.1875,-0.34155 -9e-6,-0.20384 -0.05494,-0.32515 -0.1875,-0.34155 -0.696261,-0.0811 -1.232985,-0.1786 -1.59375,-0.31309 -0.36078,-0.13449 -0.605034,-0.31259 -0.75,-0.5408 -0.144975,-0.2282 -0.218751,-0.62566 -0.21875,-1.19543 l 0,-4.32635 c 0.961386,0.081 1.9427,0.11386 2.9375,0.11385 1.65814,10e-6 3.032925,-0.47832 4.15625,-1.4516 1.123301,-0.97326 1.687486,-2.18082 1.6875,-3.61477 -1.6e-5,-1.62929 -0.536736,-2.88137 -1.59375,-3.72862 -1.057039,-0.8472 -2.585846,-1.25233 -4.625,-1.25236 -0.555594,3e-5 -1.237466,0.008 -2,0.0569 -0.729653,0.0487 -1.338262,0.0854 -1.84375,0.0854 -0.506,10e-6 -1.13726,-0.0367 -1.875,-0.0854 -0.771141,-0.0492 -1.413672,-0.0569 -1.96875,-0.0569 -0.03314,10e-6 -0.06889,-0.0143 -0.09375,0 z m 7.65625,0.82542 c 1.077763,2e-5 1.94303,0.37693 2.59375,1.11005 0.650701,0.73312 0.999984,1.74239 1,3.04551 -1.3e-5,1.32804 -0.387266,2.37344 -1.125,3.13091 -0.737755,0.75748 -1.773492,1.13852 -3.125,1.13851 -0.745847,1e-5 -1.244856,-0.0527 -1.46875,-0.17078 -0.223909,-0.11808 -0.312501,-0.36153 -0.3125,-0.71157 l 0,-5.60716 c -5e-6,-0.65132 0.07378,-1.08925 0.21875,-1.30929 0.144963,-0.21997 0.397569,-0.38614 0.75,-0.48387 0.35242,-0.0977 0.822073,-0.14229 1.46875,-0.14231 z" id="l_p" />
<path d="m 112.74147,32.21412 c -0.67148,1.40906 -1.21871,2.75322 -1.64171,4.03251 -3.12505,-0.0979 -5.35092,-0.14693 -6.67764,-0.14693 -1.30953,0 -3.53136,0.049 -6.665497,0.14693 -0.132572,0 -0.198857,-0.1141 -0.198857,-0.34232 0,-0.20385 0.06629,-0.31398 0.198857,-0.33039 0.688154,-0.0811 1.214644,-0.1888 1.579469,-0.3233 0.364821,-0.13448 0.619844,-0.31585 0.765068,-0.54406 0.14522,-0.2282 0.21783,-0.62722 0.21783,-1.19699 l 0,-11.49868 c 0,-0.56182 -0.0684,-0.95885 -0.20531,-1.19103 -0.136872,-0.23219 -0.38772,-0.41752 -0.75254,-0.55599 -0.364827,-0.13847 -0.899666,-0.24847 -1.604517,-0.33003 -0.132572,10e-6 -0.198857,-0.11409 -0.198857,-0.34231 0,-0.22819 0.06629,-0.34231 0.198857,-0.34234 2.089259,0.098 4.228357,0.14695 6.417307,0.14693 2.20512,2e-5 4.34802,-0.049 6.42869,-0.14693 0.19074,1.26291 0.46854,2.50938 0.83337,3.73945 -1e-5,0.16308 -0.14523,0.24463 -0.43566,0.24461 -0.14068,2e-5 -0.22771,-0.0572 -0.26109,-0.17154 -0.61328,-1.92214 -1.92306,-2.88323 -3.92932,-2.88324 l -2.51227,0 c -0.96141,10e-6 -1.4421,0.48876 -1.4421,1.46623 l 0,5.4376 3.1339,0 c 0.82881,2e-5 1.39034,-0.18743 1.68459,-0.56234 0.29422,-0.37486 0.49953,-1.03887 0.61592,-1.99202 -10e-6,-0.13026 0.11586,-0.19538 0.34762,-0.19539 0.23224,10e-6 0.34837,0.0651 0.34838,0.19539 -1e-5,0.40771 -0.0248,0.92108 -0.0744,1.54007 -0.0496,0.59465 -0.0744,1.07918 -0.0744,1.45356 -1e-5,0.38285 0.0248,0.87184 0.0744,1.46697 0.0496,0.63493 0.0744,1.15624 0.0744,1.56394 -1e-5,0.13028 -0.11614,0.19541 -0.34838,0.19541 -0.23176,0 -0.34763,-0.0651 -0.34762,-0.19541 -0.12449,-0.99389 -0.34219,-1.69045 -0.65312,-2.08971 -0.31094,-0.39925 -0.86007,-0.59888 -1.64739,-0.59889 l -3.1339,0 0,6.01187 c 0,0.96108 0.48069,1.44162 1.4421,1.44162 l 2.71113,0 c 0.98668,0 1.96502,-0.31559 2.93503,-0.94679 0.96998,-0.63118 1.68293,-1.41936 2.13885,-2.36455 0.0329,-0.0731 0.10321,-0.10961 0.211,-0.10963 0.11636,2e-5 0.22009,0.0306 0.31119,0.0917 0.0911,0.0612 0.1366,0.13648 0.13662,0.22598 l 0,0 z" id="l_e" />
<path d="m 114.28408,19.07646 c -0.13419,2e-5 -0.18979,0.14355 -0.18979,0.37455 0,0.23102 0.0556,0.34575 0.18979,0.34573 0.71348,0.0821 1.24397,0.17678 1.61327,0.31692 0.36929,0.14019 0.65226,0.34121 0.79081,0.57623 0.13855,0.23506 0.1898,0.64088 0.1898,1.21008 l 0,11.58213 c 0,0.57674 -0.0744,0.97907 -0.22143,1.21006 -0.14701,0.23101 -0.38989,0.41129 -0.75918,0.54743 -0.3693,0.13613 -0.91669,0.23488 -1.61327,0.31692 -0.13419,0.0166 -0.18979,0.1394 -0.18979,0.34573 0,0.23102 0.0556,0.34573 0.18979,0.34573 1.47716,-0.0659 2.99444,-0.11524 4.5551,-0.11524 0.38618,0 1.15111,0.0249 2.30918,0.0576 1.12476,0.0332 1.87714,0.0576 2.24592,0.0576 2.94561,0 5.29378,-0.77504 7.02244,-2.33371 1.72863,-1.55866 2.59385,-3.62603 2.59388,-6.16561 -2e-5,-2.53956 -0.89087,-4.61119 -2.65714,-6.22323 -1.76632,-1.612 -4.08887,-2.42014 -6.95918,-2.42014 -0.36878,0 -1.12116,0.033 -2.24592,0.0576 -1.15807,0.0247 -1.923,0.0288 -2.30918,0.0288 -2.05594,10e-6 -3.57323,-0.0493 -4.5551,-0.11525 z m 9.0153,0.86434 0.0633,0 c 1.96375,10e-6 3.59824,0.73001 4.90306,2.21847 1.30478,1.48846 1.9612,3.34676 1.96122,5.58938 -3e-5,2.18527 -0.65859,4.01059 -1.99285,5.47414 -1.33428,1.46356 -2.97915,2.21849 -4.93469,2.21848 l -2.37245,-0.0864 c -0.99009,0 -1.48673,-0.47162 -1.48673,-1.41176 l 0,-12.53289 c 0,-0.92352 0.49664,-1.40785 1.48673,-1.44058 l 2.37245,-0.0288 z" id="l_d" />
<path d="m 144.37974,35.8994 c 0,0.23101 -0.0671,0.34651 -0.2013,0.34651 -0.56239,0 -1.22952,-0.0249 -2.00138,-0.0747 -0.73858,-0.0493 -1.36371,-0.074 -1.87539,-0.074 -0.5122,0 -1.13733,0.0247 -1.8754,0.074 -0.78057,0.0498 -1.45616,0.0747 -2.02674,0.0747 -0.1342,0 -0.20129,-0.1155 -0.20129,-0.34651 0,-0.20635 0.0671,-0.31783 0.20129,-0.33444 1.01516,-0.11525 1.70534,-0.30071 2.07053,-0.55638 0.3652,-0.25567 0.54779,-0.76674 0.54779,-1.53324 l 0,-11.63947 c 0,-0.57727 -0.0735,-0.98341 -0.22049,-1.21845 -0.14701,-0.23503 -0.40515,-0.42049 -0.77444,-0.55639 -0.36929,-0.13588 -0.91042,-0.24509 -1.62339,-0.32765 -0.1342,10e-6 -0.20129,-0.11548 -0.20129,-0.3465 0,-0.23098 0.0671,-0.3465 0.20129,-0.34653 0.57058,3e-5 1.24617,0.0249 2.02674,0.0748 0.73807,0.0493 1.3632,0.074 1.8754,0.074 0.51168,2e-5 1.13681,-0.0246 1.87539,-0.074 0.77186,-0.0498 1.43899,-0.0747 2.00138,-0.0748 0.13419,3e-5 0.2013,0.11555 0.2013,0.34653 0,0.23102 -0.0671,0.34651 -0.2013,0.3465 -0.70478,0.0826 -1.24181,0.19177 -1.61109,0.32765 -0.3693,0.1359 -0.62526,0.31934 -0.76791,0.55033 -0.14264,0.23103 -0.21397,0.63919 -0.21397,1.22451 l 0,11.63947 c 0,0.56869 0.0713,0.97058 0.21397,1.2056 0.14265,0.23505 0.39643,0.42064 0.76138,0.55676 0.36493,0.13615 0.90003,0.24522 1.60534,0.32726 0.14237,0.0166 0.21358,0.12809 0.21358,0.33444 l 0,0 z" id="l_i_3" />
<path d="m 159.58332,11.03812 c -0.26531,3e-5 -0.43318,0.0696 -0.50612,0.2593 l -8.47755,20.456 c -0.62784,1.38809 -1.24922,2.31513 -1.83469,2.76587 -0.58547,0.45075 -1.37025,0.71187 -2.37245,0.80673 -0.27782,0.0239 -0.41123,0.21505 -0.41122,0.5474 0,0.29686 0.0718,0.43218 0.25306,0.43218 0.5792,0 1.29849,-0.0436 2.11939,-0.11524 0.7848,-0.071 1.4417,-0.0865 1.96122,-0.0865 0.65141,0 1.38083,0.0155 2.21428,0.0865 0.88133,0.0717 1.6797,0.11524 2.40408,0.11524 0.19307,0 0.28469,-0.15744 0.2847,-0.48979 -1e-5,-0.33237 -0.0763,-0.48979 -0.22143,-0.48979 -1.95575,-0.0949 -2.9102,-0.68456 -2.9102,-1.72868 0,-0.40332 0.11356,-0.96419 0.37959,-1.69986 l 2.08775,-5.50296 7.43367,0 2.05612,5.93512 c 0.24168,0.67631 0.37957,1.18975 0.37959,1.49819 -2e-5,0.48659 -0.2567,0.83468 -0.72755,1.06601 -0.47089,0.23137 -1.23479,0.38512 -2.30918,0.43218 -0.14519,0 -0.22144,0.15742 -0.22143,0.48979 -1e-5,0.33235 0.0916,0.48979 0.2847,0.48979 0.80909,0 1.79518,-0.0436 2.94183,-0.11524 1.08691,-0.071 1.98421,-0.0865 2.7204,-0.0865 0.64036,0 1.43514,0.0155 2.34082,0.0865 1.05007,0.0717 1.98256,0.11524 2.81531,0.11524 0.19377,0 0.28464,-0.15744 0.28469,-0.48979 -4e-5,-0.29689 -0.10629,-0.4659 -0.34796,-0.48979 -1.20782,-0.14192 -2.19211,-0.49161 -2.9102,-1.03721 -0.71814,-0.5456 -1.2852,-1.38411 -1.70817,-2.53539 l -7.4653,-20.456 c -0.073,-0.17809 -0.24816,-0.25927 -0.53775,-0.2593 z m -1.17041,5.09959 3.1949,9.10437 -6.64285,0 3.44795,-9.10437 z" id="l_A" />
</g>
</svg>